<?xml version="1.0" encoding="UTF-8" standalone="no"?>
<!DOCTYPE svg PUBLIC "-//W3C//DTD SVG 1.1//EN" "http://www.w3.org/Graphics/SVG/1.1/DTD/svg11.dtd">
<svg width="100%" height="100%" viewBox="0 0 5552 1063" version="1.1" xmlns="http://www.w3.org/2000/svg" xmlns:xlink="http://www.w3.org/1999/xlink" xml:space="preserve" xmlns:serif="http://www.serif.com/" style="fill-rule:evenodd;clip-rule:evenodd;stroke-linejoin:round;stroke-miterlimit:2;">
    <g transform="matrix(2.56318,0,0,2.56318,5131.24,1023.42)">
        <path d="M39.33,-204.265C41.022,-204.687 43.771,-204.899 47.577,-204.899C56.458,-204.899 62.379,-203.842 65.339,-201.727C68.3,-198.767 65.762,-196.229 57.727,-194.115L55.824,-193.48C43.137,-190.943 36.793,-186.714 36.793,-180.793C36.793,-175.718 41.868,-168.106 52.018,-157.956C61.322,-149.498 67.031,-142.52 69.145,-137.022C70.837,-133.639 71.683,-129.41 71.683,-124.335C71.683,-112.916 67.877,-102.344 60.264,-92.617C52.652,-82.89 43.982,-78.027 34.256,-78.027C29.181,-78.027 24,-79.507 18.714,-82.467C13.427,-85.427 10.784,-88.388 10.784,-91.348C10.784,-97.692 15.013,-99.383 23.471,-96.423C28.969,-94.308 34.467,-94.731 39.965,-97.692C44.617,-100.229 48.74,-104.035 52.335,-109.11C55.93,-114.185 57.727,-118.626 57.727,-122.432C57.727,-127.93 48.846,-138.079 31.084,-152.881C22.626,-160.071 18.396,-168.529 18.396,-178.256C18.396,-192.212 25.374,-200.881 39.33,-204.265Z" style="fill:white;fill-rule:nonzero;"/>
    </g>
    <g transform="matrix(2.56318,0,0,2.56318,4859.7,1027.58)">
        <path d="M22.203,-153.516C24.317,-158.591 27.278,-161.128 31.084,-161.128C34.467,-161.128 36.793,-160.071 38.062,-157.956C39.33,-155.842 39.119,-153.093 37.427,-149.709C36.582,-148.018 35.947,-145.903 35.524,-143.366C35.101,-140.828 34.996,-138.502 35.207,-136.388C35.419,-134.273 35.947,-133.216 36.793,-133.216C37.639,-133.216 38.908,-134.062 40.599,-135.753C42.714,-137.868 57.938,-141.04 86.273,-145.269C88.388,-145.692 91.137,-145.903 94.52,-145.903C102.978,-145.903 107.207,-143.577 107.207,-138.925C107.207,-134.696 100.864,-131.736 88.176,-130.044C81.41,-129.198 72.846,-126.767 62.485,-122.749C52.123,-118.731 45.674,-115.242 43.137,-112.282C40.176,-108.476 36.793,-102.978 32.987,-95.789C28.335,-85.216 23.471,-79.93 18.396,-79.93C17.551,-79.93 16.282,-80.353 14.59,-81.198C11.63,-82.89 10.15,-88.599 10.15,-98.326C10.15,-118.203 14.167,-136.599 22.203,-153.516Z" style="fill:white;fill-rule:nonzero;"/>
    </g>
    <g transform="matrix(2.56318,0,0,2.56318,4261.33,1023.42)">
        <path d="M192.212,-154.15C194.326,-155.419 194.961,-156.899 194.115,-158.591C193.269,-160.282 190.626,-161.128 186.185,-161.128C181.745,-161.128 178.467,-160.494 176.353,-159.225C172.969,-156.687 173.392,-154.573 177.621,-152.881L182.696,-152.247C186.925,-152.247 190.097,-152.881 192.212,-154.15ZM175.084,-176.987C180.582,-180.37 186.502,-182.062 192.846,-182.062C199.613,-182.062 205.216,-179.947 209.657,-175.718C214.097,-171.489 216.317,-165.568 216.317,-157.956C216.317,-153.304 213.251,-148.018 207.119,-142.097C200.987,-136.176 194.538,-132.37 187.771,-130.679C185.234,-129.833 182.485,-129.41 179.524,-129.41C176.987,-129.41 173.181,-130.679 168.106,-133.216C161.339,-136.599 157.322,-138.291 156.053,-138.291C153.939,-138.291 151.19,-134.485 147.806,-126.872C144.423,-119.26 142.731,-113.339 142.731,-109.11C142.731,-100.652 150.978,-96.423 167.472,-96.423C177.621,-96.423 187.771,-97.48 197.921,-99.595C208.494,-101.709 214.837,-102.767 216.952,-102.767C218.643,-102.767 219.912,-102.344 220.758,-101.498C222.027,-100.229 222.661,-98.96 222.661,-97.692C222.661,-96 221.287,-94.414 218.538,-92.934C215.789,-91.454 212.3,-90.079 208.071,-88.811C203.842,-87.542 201.304,-86.696 200.458,-86.273C193.692,-80.353 180.582,-77.392 161.128,-77.392C150.978,-77.392 142.837,-79.824 136.705,-84.687C130.573,-89.551 127.507,-96 127.507,-104.035C127.507,-106.573 127.718,-108.687 128.141,-110.379C130.256,-120.529 136.282,-132.793 146.22,-147.172C156.159,-161.551 165.78,-171.489 175.084,-176.987Z" style="fill:white;fill-rule:nonzero;"/>
    </g>
    <g transform="matrix(2.56318,0,0,2.56318,4261.33,1023.42)">
        <path d="M75.489,-154.15C77.604,-155.419 78.238,-156.899 77.392,-158.591C76.546,-160.282 73.903,-161.128 69.463,-161.128C65.022,-161.128 61.745,-160.494 59.63,-159.225C56.247,-156.687 56.67,-154.573 60.899,-152.881L65.974,-152.247C70.203,-152.247 73.375,-152.881 75.489,-154.15ZM58.361,-176.987C63.859,-180.37 69.78,-182.062 76.123,-182.062C82.89,-182.062 88.493,-179.947 92.934,-175.718C97.375,-171.489 99.595,-165.568 99.595,-157.956C99.595,-153.304 96.529,-148.018 90.397,-142.097C84.264,-136.176 77.815,-132.37 71.049,-130.679C68.511,-129.833 65.762,-129.41 62.802,-129.41C60.264,-129.41 56.458,-130.679 51.383,-133.216C44.617,-136.599 40.599,-138.291 39.33,-138.291C37.216,-138.291 34.467,-134.485 31.084,-126.872C27.7,-119.26 26.009,-113.339 26.009,-109.11C26.009,-100.652 34.256,-96.423 50.749,-96.423C60.899,-96.423 71.049,-97.48 81.198,-99.595C91.771,-101.709 98.115,-102.767 100.229,-102.767C101.921,-102.767 103.19,-102.344 104.035,-101.498C105.304,-100.229 105.938,-98.96 105.938,-97.692C105.938,-96 104.564,-94.414 101.815,-92.934C99.066,-91.454 95.577,-90.079 91.348,-88.811C87.119,-87.542 84.582,-86.696 83.736,-86.273C76.969,-80.353 63.859,-77.392 44.405,-77.392C34.256,-77.392 26.115,-79.824 19.982,-84.687C13.85,-89.551 10.784,-96 10.784,-104.035C10.784,-106.573 10.996,-108.687 11.419,-110.379C13.533,-120.529 19.56,-132.793 29.498,-147.172C39.436,-161.551 49.057,-171.489 58.361,-176.987Z" style="fill:white;fill-rule:nonzero;"/>
    </g>
    <g transform="matrix(2.56318,0,0,2.56318,3819.06,994.249)">
        <path d="M60.899,-105.304C60.053,-105.304 54.978,-102.555 45.674,-97.057C36.37,-91.56 30.872,-88.811 29.181,-88.811C20.722,-88.811 15.013,-98.115 12.053,-116.723C10.784,-124.335 10.15,-130.467 10.15,-135.119C10.15,-143.154 12.687,-147.172 17.762,-147.172C21.991,-147.172 24.106,-145.269 24.106,-141.463C24.106,-137.657 24.952,-132.053 26.643,-124.652C28.335,-117.251 29.815,-112.916 31.084,-111.648C31.507,-110.802 32.564,-110.379 34.256,-110.379C37.216,-110.379 42.397,-113.868 49.797,-120.846C57.198,-127.824 62.167,-131.313 64.705,-131.313C67.242,-131.313 70.414,-128.564 74.22,-123.066C78.027,-117.568 80.353,-112.071 81.198,-106.573C82.044,-101.075 83.313,-96.423 85.005,-92.617C86.273,-90.079 89.234,-90.079 93.886,-92.617C99.806,-95.577 109.956,-104.247 124.335,-118.626C137.445,-131.736 148.652,-141.886 157.956,-149.075C165.146,-154.15 169.586,-156.687 171.278,-156.687C172.546,-156.687 174.027,-155.842 175.718,-154.15C177.41,-152.458 178.256,-150.344 178.256,-147.806C178.256,-143.154 175.718,-139.348 170.643,-136.388C168.529,-135.119 155.736,-123.806 132.264,-102.449C108.793,-81.093 95.366,-69.78 91.982,-68.511C86.908,-66.397 82.256,-66.819 78.027,-69.78C73.375,-73.163 69.145,-82.89 65.339,-98.96C64.493,-103.19 63.013,-105.304 60.899,-105.304Z" style="fill:white;fill-rule:nonzero;"/>
    </g>
    <g transform="matrix(2.56318,0,0,2.56318,3612.56,1002.58)">
        <path d="M25.374,-295.613C27.066,-298.15 28.969,-299.419 31.084,-299.419C35.313,-299.419 38.062,-296.459 39.33,-290.538C40.176,-288.423 40.599,-279.119 40.599,-262.626C40.599,-203.842 38.485,-164.723 34.256,-145.269C31.718,-133.85 33.833,-130.044 40.599,-133.85C43.982,-135.542 47.789,-135.331 52.018,-133.216C62.167,-127.718 68.088,-113.339 69.78,-90.079L69.78,-83.736C69.78,-74.009 67.665,-69.145 63.436,-69.145C62.59,-69.145 60.899,-69.568 58.361,-70.414C55.824,-71.683 54.238,-73.163 53.604,-74.855C52.969,-76.546 52.652,-80.141 52.652,-85.639C52.652,-102.132 49.692,-110.379 43.771,-110.379L43.137,-110.379C39.33,-109.533 32.564,-101.286 22.837,-85.639C20.722,-82.679 18.396,-82.044 15.859,-83.736C12.476,-85.85 10.784,-89.445 10.784,-94.52C10.784,-97.903 11.841,-104.881 13.956,-115.454C20.722,-146.749 24.106,-170.432 24.106,-186.502C24.106,-192.423 24.317,-200.67 24.74,-211.243C25.163,-221.815 25.374,-230.062 25.374,-235.983C25.374,-246.132 25.163,-254.168 24.74,-260.088C23.894,-275.313 23.471,-283.348 23.471,-284.194C23.471,-289.692 24.106,-293.498 25.374,-295.613Z" style="fill:white;fill-rule:nonzero;"/>
    </g>
    <g transform="matrix(2.56318,0,0,2.56318,3300.37,1015.08)">
        <path d="M36.793,-150.027C45.251,-159.542 51.595,-165.357 55.824,-167.472C60.053,-169.586 64.705,-170.643 69.78,-170.643C74.009,-170.643 76.546,-169.586 77.392,-167.472C77.815,-166.626 78.027,-165.78 78.027,-164.934C78.027,-161.974 73.375,-158.379 64.071,-154.15C54.344,-149.498 45.78,-142.309 38.379,-132.582C30.978,-122.855 27.278,-114.185 27.278,-106.573C27.278,-101.498 28.969,-98.115 32.352,-96.423C33.621,-95.577 37.427,-95.154 43.771,-95.154C56.458,-95.154 67.031,-96.634 75.489,-99.595C89.868,-104.67 99.806,-107.207 105.304,-107.207C107.419,-107.207 108.899,-106.784 109.745,-105.938C110.59,-105.093 111.013,-104.458 111.013,-104.035C111.013,-100.652 102.132,-95.366 84.37,-88.176C63.648,-79.718 48,-75.489 37.427,-75.489C29.815,-75.489 23.26,-77.815 17.762,-82.467C13.11,-86.696 10.784,-93.04 10.784,-101.498C10.784,-108.687 12.899,-116.3 17.128,-124.335C21.78,-131.947 28.335,-140.511 36.793,-150.027Z" style="fill:white;fill-rule:nonzero;"/>
    </g>
    <g transform="matrix(2.56318,0,0,2.56318,2980.05,994.249)">
        <path d="M87.542,-308.3C95.577,-309.569 102.767,-310.203 109.11,-310.203C118.837,-310.203 123.701,-308.934 123.701,-306.397C123.701,-305.551 123.066,-304.494 121.798,-303.225C120.529,-301.956 112.705,-300.476 98.326,-298.785C69.145,-295.824 49.269,-289.481 38.696,-279.754C33.621,-274.679 31.507,-269.392 32.352,-263.895C34.044,-252.899 44.828,-240.635 64.705,-227.102C91.348,-208.071 107.63,-193.269 113.551,-182.696C116.088,-178.467 117.357,-170.643 117.357,-159.225C117.357,-131.313 104.247,-107.842 78.027,-88.811C72.106,-85.005 67.665,-81.621 64.705,-78.661C63.013,-76.546 52.229,-72.317 32.352,-65.974C31.93,-65.974 31.507,-65.868 31.084,-65.656C30.661,-65.445 30.238,-65.339 29.815,-65.339C26.855,-65.339 23.366,-66.502 19.348,-68.828C15.33,-71.154 12.899,-73.375 12.053,-75.489C11.207,-78.872 10.784,-80.775 10.784,-81.198C10.784,-83.736 15.648,-85.005 25.374,-85.005C35.524,-85.005 43.56,-86.908 49.48,-90.714C57.515,-95.789 63.436,-99.383 67.242,-101.498C80.353,-108.687 90.714,-123.701 98.326,-146.538C100.018,-152.458 100.864,-156.687 100.864,-159.225C100.864,-173.604 86.908,-189.674 58.996,-207.436C50.115,-212.934 41.128,-220.124 32.035,-229.005C22.943,-237.886 17.339,-244.652 15.225,-249.304C13.956,-253.11 13.322,-256.917 13.322,-260.723C13.322,-273.833 18.185,-283.137 27.912,-288.635C32.564,-291.172 41.762,-294.767 55.507,-299.419C69.251,-304.071 79.93,-307.031 87.542,-308.3Z" style="fill:white;fill-rule:nonzero;"/>
    </g>
    <g transform="matrix(2.56318,0,0,2.56318,2280.08,1004.01)">
        <path d="M24.106,-176.987C26.643,-178.679 28.335,-179.524 29.181,-179.524C32.141,-179.524 33.621,-176.141 33.621,-169.375C33.621,-165.146 32.987,-159.859 31.718,-153.516C31.295,-150.978 30.872,-148.652 30.449,-146.538C30.026,-144.423 29.815,-142.731 29.815,-141.463C29.815,-140.194 30.026,-139.348 30.449,-138.925C31.295,-138.079 37.427,-140.405 48.846,-145.903C63.225,-152.67 73.586,-156.053 79.93,-156.053C85.427,-156.053 89.868,-154.361 93.251,-150.978C98.749,-145.48 101.498,-135.965 101.498,-122.432C101.498,-116.088 100.864,-108.899 99.595,-100.864L99.595,-98.96C97.057,-80.775 94.731,-71.26 92.617,-70.414C92.194,-69.991 91.137,-69.78 89.445,-69.78L80.564,-69.78L82.467,-89.445C83.736,-101.286 84.37,-110.59 84.37,-117.357C84.37,-126.238 83.101,-131.947 80.564,-134.485C78.027,-137.022 72.952,-137.234 65.339,-135.119C57.727,-133.005 48,-126.238 36.159,-114.82C24.317,-103.824 16.916,-98.326 13.956,-98.326C11.419,-98.326 10.15,-102.555 10.15,-111.013L10.15,-114.82C10.573,-125.815 12.37,-138.397 15.542,-152.564C18.714,-166.731 21.568,-174.872 24.106,-176.987Z" style="fill:white;fill-rule:nonzero;"/>
    </g>
    <g transform="matrix(2.56318,0,0,2.56318,1940.25,1020.67)">
        <path d="M36.159,-159.859C41.656,-163.242 47.789,-164.934 54.555,-164.934C61.322,-164.934 67.242,-163.56 72.317,-160.811C77.392,-158.062 79.93,-154.361 79.93,-149.709C79.93,-146.749 79.295,-145.057 78.027,-144.635C76.758,-144.212 72.317,-144.423 64.705,-145.269C62.59,-145.692 59.63,-145.903 55.824,-145.903C46.52,-145.903 38.908,-141.251 32.987,-131.947C30.026,-127.295 28.546,-121.586 28.546,-114.82C28.546,-109.745 29.604,-106.361 31.718,-104.67C32.564,-103.824 34.256,-103.401 36.793,-103.401C43.137,-103.401 51.172,-106.89 60.899,-113.868C70.626,-120.846 78.661,-129.198 85.005,-138.925C89.234,-145.692 93.674,-148.864 98.326,-148.441C102.978,-148.018 105.304,-145.269 105.304,-140.194C105.304,-134.696 102.978,-127.507 98.326,-118.626C94.52,-110.59 92.617,-104.881 92.617,-101.498C92.617,-97.269 96.423,-95.154 104.035,-95.154C115.454,-95.154 121.163,-92.405 121.163,-86.908C121.163,-81.833 116.088,-78.661 105.938,-77.392C103.824,-76.969 101.075,-76.758 97.692,-76.758C85.85,-76.758 78.027,-80.987 74.22,-89.445C71.683,-94.943 70.203,-97.692 69.78,-97.692L55.824,-90.714C46.943,-86.062 39.965,-83.736 34.89,-83.736C31.93,-83.736 28.123,-84.37 23.471,-85.639C14.59,-88.176 10.15,-95.154 10.15,-106.573C10.15,-110.379 10.361,-113.339 10.784,-115.454C12.899,-135.331 21.357,-150.132 36.159,-159.859Z" style="fill:white;fill-rule:nonzero;"/>
    </g>
    <g transform="matrix(2.56318,0,0,2.56318,1732.13,1004.01)">
        <path d="M25.374,-295.613C27.066,-298.15 28.969,-299.419 31.084,-299.419C35.313,-299.419 38.062,-296.459 39.33,-290.538C40.176,-288.423 40.599,-279.119 40.599,-262.626C40.599,-203.842 38.485,-164.723 34.256,-145.269C31.718,-133.85 33.833,-130.044 40.599,-133.85C43.982,-135.542 47.789,-135.331 52.018,-133.216C62.167,-127.718 68.088,-113.339 69.78,-90.079L69.78,-83.736C69.78,-74.009 67.665,-69.145 63.436,-69.145C62.59,-69.145 60.899,-69.568 58.361,-70.414C55.824,-71.683 54.238,-73.163 53.604,-74.855C52.969,-76.546 52.652,-80.141 52.652,-85.639C52.652,-102.132 49.692,-110.379 43.771,-110.379L43.137,-110.379C39.33,-109.533 32.564,-101.286 22.837,-85.639C20.722,-82.679 18.396,-82.044 15.859,-83.736C12.476,-85.85 10.784,-89.445 10.784,-94.52C10.784,-97.903 11.841,-104.881 13.956,-115.454C20.722,-146.749 24.106,-170.432 24.106,-186.502C24.106,-192.423 24.317,-200.67 24.74,-211.243C25.163,-221.815 25.374,-230.062 25.374,-235.983C25.374,-246.132 25.163,-254.168 24.74,-260.088C23.894,-275.313 23.471,-283.348 23.471,-284.194C23.471,-289.692 24.106,-293.498 25.374,-295.613Z" style="fill:white;fill-rule:nonzero;"/>
    </g>
    <g transform="matrix(2.56318,0,0,2.56318,1480.1,1008.17)">
        <path d="M68.511,-330.503C69.78,-332.617 71.366,-333.992 73.269,-334.626C75.172,-335.26 76.864,-335.049 78.344,-333.992C79.824,-332.934 80.775,-331.137 81.198,-328.6C82.467,-324.793 83.101,-319.718 83.101,-313.375C83.101,-298.15 78.661,-273.199 69.78,-238.52C68.934,-234.714 67.982,-230.696 66.925,-226.467C65.868,-222.238 64.916,-218.538 64.071,-215.366C63.225,-212.194 62.802,-210.397 62.802,-209.974C62.379,-207.436 62.696,-205.956 63.753,-205.533C64.811,-205.11 68.088,-204.899 73.586,-204.899C82.89,-204.899 87.542,-203.419 87.542,-200.458C87.542,-199.613 86.696,-197.498 85.005,-194.115C82.467,-189.886 78.661,-187.771 73.586,-187.771C65.551,-187.348 60.159,-185.974 57.41,-183.648C54.661,-181.322 51.172,-175.084 46.943,-164.934C33.833,-131.947 27.278,-110.802 27.278,-101.498C27.278,-98.538 27.7,-96.634 28.546,-95.789C29.392,-94.943 31.295,-94.52 34.256,-94.52C37.216,-94.52 44.617,-96.634 56.458,-100.864C69.568,-105.938 77.604,-108.476 80.564,-108.476C82.679,-108.476 84.159,-107.419 85.005,-105.304C85.427,-104.881 85.639,-104.035 85.639,-102.767C85.639,-98.538 76.123,-91.771 57.093,-82.467C42.291,-75.278 32.141,-71.683 26.643,-71.683L24.106,-71.683C15.225,-72.106 10.784,-75.912 10.784,-83.101C10.784,-87.753 12.053,-94.943 14.59,-104.67C15.436,-107.207 16.493,-111.119 17.762,-116.405C19.031,-121.692 20.194,-126.238 21.251,-130.044C22.308,-133.85 23.26,-136.811 24.106,-138.925C24.529,-140.617 26.115,-144.74 28.863,-151.295C31.612,-157.85 33.41,-162.608 34.256,-165.568C37.216,-174.027 38.696,-179.524 38.696,-182.062C38.696,-184.599 37.004,-185.868 33.621,-185.868C29.815,-185.868 26.643,-187.137 24.106,-189.674C21.991,-191.789 20.828,-193.163 20.617,-193.798C20.405,-194.432 21.145,-196.864 22.837,-201.093C23.683,-204.053 24.74,-205.745 26.009,-206.168C27.278,-206.591 30.026,-206.591 34.256,-206.168C39.33,-205.745 42.925,-205.956 45.04,-206.802C48.423,-208.917 52.546,-222.45 57.41,-247.401C62.273,-272.353 64.705,-292.018 64.705,-306.397C64.705,-317.392 65.974,-325.428 68.511,-330.503Z" style="fill:white;fill-rule:nonzero;"/>
    </g>
    <g transform="matrix(2.56318,0,0,2.56318,1140.27,1020.67)">
        <path d="M36.159,-159.859C41.656,-163.242 47.789,-164.934 54.555,-164.934C61.322,-164.934 67.242,-163.56 72.317,-160.811C77.392,-158.062 79.93,-154.361 79.93,-149.709C79.93,-146.749 79.295,-145.057 78.027,-144.635C76.758,-144.212 72.317,-144.423 64.705,-145.269C62.59,-145.692 59.63,-145.903 55.824,-145.903C46.52,-145.903 38.908,-141.251 32.987,-131.947C30.026,-127.295 28.546,-121.586 28.546,-114.82C28.546,-109.745 29.604,-106.361 31.718,-104.67C32.564,-103.824 34.256,-103.401 36.793,-103.401C43.137,-103.401 51.172,-106.89 60.899,-113.868C70.626,-120.846 78.661,-129.198 85.005,-138.925C89.234,-145.692 93.674,-148.864 98.326,-148.441C102.978,-148.018 105.304,-145.269 105.304,-140.194C105.304,-134.696 102.978,-127.507 98.326,-118.626C94.52,-110.59 92.617,-104.881 92.617,-101.498C92.617,-97.269 96.423,-95.154 104.035,-95.154C115.454,-95.154 121.163,-92.405 121.163,-86.908C121.163,-81.833 116.088,-78.661 105.938,-77.392C103.824,-76.969 101.075,-76.758 97.692,-76.758C85.85,-76.758 78.027,-80.987 74.22,-89.445C71.683,-94.943 70.203,-97.692 69.78,-97.692L55.824,-90.714C46.943,-86.062 39.965,-83.736 34.89,-83.736C31.93,-83.736 28.123,-84.37 23.471,-85.639C14.59,-88.176 10.15,-95.154 10.15,-106.573C10.15,-110.379 10.361,-113.339 10.784,-115.454C12.899,-135.331 21.357,-150.132 36.159,-159.859Z" style="fill:white;fill-rule:nonzero;"/>
    </g>
    <g transform="matrix(2.56318,0,0,2.56318,844.338,1004.01)">
        <path d="M24.106,-176.987C26.643,-178.679 28.335,-179.524 29.181,-179.524C32.141,-179.524 33.621,-176.141 33.621,-169.375C33.621,-165.146 32.987,-159.859 31.718,-153.516C31.295,-150.978 30.872,-148.652 30.449,-146.538C30.026,-144.423 29.815,-142.731 29.815,-141.463C29.815,-140.194 30.026,-139.348 30.449,-138.925C31.295,-138.079 37.427,-140.405 48.846,-145.903C63.225,-152.67 73.586,-156.053 79.93,-156.053C85.427,-156.053 89.868,-154.361 93.251,-150.978C98.749,-145.48 101.498,-135.965 101.498,-122.432C101.498,-116.088 100.864,-108.899 99.595,-100.864L99.595,-98.96C97.057,-80.775 94.731,-71.26 92.617,-70.414C92.194,-69.991 91.137,-69.78 89.445,-69.78L80.564,-69.78L82.467,-89.445C83.736,-101.286 84.37,-110.59 84.37,-117.357C84.37,-126.238 83.101,-131.947 80.564,-134.485C78.027,-137.022 72.952,-137.234 65.339,-135.119C57.727,-133.005 48,-126.238 36.159,-114.82C24.317,-103.824 16.916,-98.326 13.956,-98.326C11.419,-98.326 10.15,-102.555 10.15,-111.013L10.15,-114.82C10.573,-125.815 12.37,-138.397 15.542,-152.564C18.714,-166.731 21.568,-174.872 24.106,-176.987Z" style="fill:white;fill-rule:nonzero;"/>
    </g>
    <g transform="matrix(2.56318,0,0,2.56318,554.914,1004.01)">
        <path d="M39.33,-160.494C42.291,-162.185 45.674,-163.031 49.48,-163.031C54.132,-163.031 58.044,-161.657 61.216,-158.908C64.388,-156.159 65.974,-152.458 65.974,-147.806C65.974,-144.423 65.339,-142.309 64.071,-141.463C62.802,-140.617 58.784,-140.405 52.018,-140.828L50.749,-140.828C44.828,-140.828 39.648,-138.608 35.207,-134.168C30.767,-129.727 28.123,-123.912 27.278,-116.723L27.278,-112.282C27.278,-99.172 32.775,-92.617 43.771,-92.617C52.652,-92.617 61.533,-97.269 70.414,-106.573C75.066,-111.225 77.392,-115.454 77.392,-119.26C77.392,-122.22 77.181,-124.758 76.758,-126.872C76.335,-132.793 76.335,-136.388 76.758,-137.657C77.181,-138.925 78.872,-140.194 81.833,-141.463C85.639,-143.577 89.022,-142.731 91.982,-138.925C94.943,-135.542 96.423,-130.679 96.423,-124.335C96.423,-122.643 96,-118.837 95.154,-112.916C94.308,-107.419 89.022,-99.912 79.295,-90.397C69.568,-80.881 61.533,-75.066 55.189,-72.952C51.383,-71.683 47.789,-71.049 44.405,-71.049C36.793,-71.049 30.026,-73.163 24.106,-77.392C18.185,-81.621 14.379,-87.119 12.687,-93.886C10.996,-101.498 10.15,-107.63 10.15,-112.282C10.15,-119.049 11.207,-124.969 13.322,-130.044C15.436,-134.696 19.137,-140.194 24.423,-146.538C29.709,-152.881 34.678,-157.533 39.33,-160.494Z" style="fill:white;fill-rule:nonzero;"/>
    </g>
    <g transform="matrix(2.56318,0,0,2.56318,208.58,1004.01)">
        <path d="M93.886,-295.613C103.19,-299.419 109.11,-301.322 111.648,-301.322C113.339,-301.322 115.242,-300.265 117.357,-298.15C122.009,-293.498 124.335,-267.701 124.335,-220.758C123.912,-174.661 119.049,-137.657 109.745,-109.745C106.361,-98.749 103.295,-91.348 100.546,-87.542C97.797,-83.736 93.251,-79.93 86.908,-76.123C79.718,-72.317 72.529,-70.414 65.339,-70.414C57.304,-70.414 46.943,-72.529 34.256,-76.758C18.608,-81.833 10.784,-86.485 10.784,-90.714C10.784,-91.56 11.419,-92.617 12.687,-93.886C14.802,-96 19.031,-95.366 25.374,-91.982C32.987,-88.599 42.714,-86.908 54.555,-86.908C68.088,-86.908 77.392,-88.811 82.467,-92.617C93.886,-100.652 102.344,-126.661 107.842,-170.643C108.687,-176.141 109.11,-187.983 109.11,-206.168C109.11,-248.458 107.63,-271.084 104.67,-274.044C102.555,-276.159 97.269,-275.736 88.811,-272.776C79.93,-269.815 71.471,-268.335 63.436,-268.335C57.515,-268.335 53.921,-268.652 52.652,-269.287C51.383,-269.921 50.749,-271.93 50.749,-275.313C50.749,-282.08 56.247,-286.309 67.242,-288C74.432,-288.846 83.313,-291.384 93.886,-295.613Z" style="fill:white;fill-rule:nonzero;"/>
    </g>
</svg>
