<?xml version="1.0" encoding="UTF-8" standalone="no"?>
<!DOCTYPE svg PUBLIC "-//W3C//DTD SVG 1.1//EN" "http://www.w3.org/Graphics/SVG/1.1/DTD/svg11.dtd">
<svg width="100%" height="100%" viewBox="0 0 3544 3544" version="1.1" xmlns="http://www.w3.org/2000/svg" xmlns:xlink="http://www.w3.org/1999/xlink" xml:space="preserve" xmlns:serif="http://www.serif.com/" style="fill-rule:evenodd;clip-rule:evenodd;stroke-linejoin:round;stroke-miterlimit:2;">
    <g>
        <g transform="matrix(1,0,0,1,118.11,3.58114e-12)">
            <path d="M944.882,2421.26C944.882,2453.88 971.322,2480.32 1003.94,2480.32L1535.43,2480.32L1535.43,2421.26C1535.43,2388.64 1508.99,2362.2 1476.38,2362.2L1062.99,2362.2L1062.99,2007.87L1476.38,2007.87C1508.99,2007.87 1535.43,1981.43 1535.43,1948.82L1535.43,1889.76L1003.94,1889.76C971.322,1889.76 944.882,1916.2 944.882,1948.82L944.882,2421.26Z" style="fill:white;"/>
        </g>
        <g transform="matrix(1,0,0,1,236.22,-118.11)">
            <path d="M0,2834.65L0,3425.2L590.551,3425.2L590.551,3366.14C590.551,3333.53 564.111,3307.09 531.496,3307.09L118.11,3307.09L118.11,3188.98L531.496,3188.98C564.111,3188.98 590.551,3162.54 590.551,3129.92L590.551,3129.92C590.551,3097.31 564.111,3070.87 531.496,3070.87C404.761,3070.87 118.11,3070.87 118.11,3070.87L118.11,2952.76L531.496,2952.76C564.111,2952.76 590.551,2926.32 590.551,2893.7L590.551,2834.65L0,2834.65Z" style="fill:white;"/>
        </g>
        <g transform="matrix(1,0,0,1,236.22,236.22)">
            <path d="M413.386,590.551C460.373,590.551 505.436,571.886 538.661,538.661C571.886,505.436 590.551,460.373 590.551,413.386L590.551,-0L0,0L0,59.055C0,91.67 26.44,118.11 59.055,118.11L472.441,118.11L472.441,413.386C472.441,446.001 446.001,472.441 413.386,472.441L177.165,472.441C144.55,472.441 118.11,446.001 118.11,413.386L118.11,354.331L0,354.331L0,413.386C-0,460.373 18.666,505.436 51.891,538.661C85.115,571.886 130.178,590.551 177.165,590.551L413.386,590.551Z" style="fill:white;"/>
        </g>
        <g transform="matrix(1,0,0,1,118.11,236.22)">
            <path d="M1003.94,-0C971.322,0 944.882,26.44 944.882,59.055L944.882,531.496C944.882,564.111 971.322,590.551 1003.94,590.551L1476.38,590.551C1508.99,590.551 1535.43,564.111 1535.43,531.496L1535.43,59.055C1535.43,26.44 1508.99,0 1476.38,-0L1003.94,-0ZM1062.99,118.11L1062.99,472.441L1417.32,472.441L1417.32,118.11L1062.99,118.11Z" style="fill:white;"/>
        </g>
        <g transform="matrix(1,0,0,1,-118.11,236.22)">
            <path d="M3425.2,59.055C3425.2,26.44 3398.76,0 3366.14,-0L2893.7,-0C2861.09,0 2834.65,26.44 2834.65,59.055L2834.65,590.551L2893.7,590.551C2926.32,590.551 2952.76,564.111 2952.76,531.496L2952.76,354.331L3307.09,354.331L3307.09,531.496C3307.09,564.111 3333.53,590.551 3366.14,590.551L3425.2,590.551L3425.2,59.055ZM2952.76,118.11L2952.76,236.22L3307.09,236.22L3307.09,118.11L2952.76,118.11Z" style="fill:white;"/>
        </g>
        <g transform="matrix(1,0,0,1,236.22,5.28644e-12)">
            <path d="M472.441,2244.09L472.441,2362.2L59.055,2362.2C26.44,2362.2 -0,2388.64 -0,2421.26L0,2480.32L531.496,2480.32C564.111,2480.32 590.551,2453.88 590.551,2421.26L590.551,2185.04C590.551,2152.42 564.111,2125.98 531.496,2125.98L118.11,2125.98L118.11,2007.87L531.496,2007.87C564.111,2007.87 590.551,1981.43 590.551,1948.82L590.551,1889.76L59.055,1889.76C26.44,1889.76 0,1916.2 0,1948.82L-0,2185.04C0,2217.66 26.44,2244.09 59.055,2244.09L472.441,2244.09Z" style="fill:white;"/>
        </g>
        <g transform="matrix(1,0,0,1,-118.11,-118.11)">
            <path d="M3307.09,3188.98L3307.09,3307.09L2893.7,3307.09C2861.09,3307.09 2834.65,3333.53 2834.65,3366.14L2834.65,3425.2L3366.14,3425.2C3398.76,3425.2 3425.2,3398.76 3425.2,3366.14L3425.2,3129.92C3425.2,3097.31 3398.76,3070.87 3366.14,3070.87L2952.76,3070.87L2952.76,2952.76L3366.14,2952.76C3398.76,2952.76 3425.2,2926.32 3425.2,2893.7L3425.2,2834.65L2893.7,2834.65C2861.09,2834.65 2834.65,2861.09 2834.65,2893.7C2834.65,2959.24 2834.65,3064.38 2834.65,3129.92C2834.65,3162.54 2861.09,3188.98 2893.7,3188.98L3307.09,3188.98Z" style="fill:white;"/>
        </g>
        <g transform="matrix(1,0,0,1,9.66338e-13,118.11)">
            <path d="M2480.32,1003.94C2480.32,971.322 2453.88,944.882 2421.26,944.882L1948.82,944.882C1916.2,944.882 1889.76,971.322 1889.76,1003.94L1889.76,1535.43L1948.82,1535.43C1981.43,1535.43 2007.87,1508.99 2007.87,1476.38L2007.87,1299.21L2362.2,1299.21L2362.2,1476.38C2362.2,1508.99 2388.64,1535.43 2421.26,1535.43L2480.32,1535.43L2480.32,1003.94ZM2007.87,1062.99L2007.87,1181.1L2362.2,1181.1L2362.2,1062.99L2007.87,1062.99Z" style="fill:white;"/>
        </g>
        <g transform="matrix(1,0,0,1,118.11,118.11)">
            <path d="M1062.99,1181.1L1062.99,1003.94C1062.99,971.322 1036.55,944.882 1003.94,944.882L944.882,944.882L944.882,1535.43L1003.94,1535.43C1036.55,1535.43 1062.99,1508.99 1062.99,1476.38L1062.99,1299.21L1417.32,1299.21L1417.32,1476.38C1417.32,1508.99 1443.76,1535.43 1476.38,1535.43L1535.43,1535.43L1535.43,944.882L1476.38,944.882C1443.76,944.882 1417.32,971.322 1417.32,1003.94L1417.32,1181.1L1062.99,1181.1Z" style="fill:white;"/>
        </g>
        <path d="M2007.87,2125.98L2007.87,1948.82C2007.87,1916.2 1981.43,1889.76 1948.82,1889.76L1889.76,1889.76L1889.76,2480.32L1948.82,2480.32C1981.43,2480.32 2007.87,2453.88 2007.87,2421.26L2007.87,2244.09L2362.2,2244.09L2362.2,2421.26C2362.2,2453.88 2388.64,2480.32 2421.26,2480.32L2480.32,2480.32L2480.32,1889.76L2421.26,1889.76C2388.64,1889.76 2362.2,1916.2 2362.2,1948.82L2362.2,2125.98L2007.87,2125.98Z" style="fill:white;"/>
        <g transform="matrix(1,0,0,1,236.22,118.11)">
            <path d="M236.22,1062.99L236.22,1535.43L354.331,1535.43L354.331,1062.99L590.551,1062.99L590.551,944.882L0,944.882L0,1062.99L236.22,1062.99Z" style="fill:white;"/>
        </g>
        <g transform="matrix(1,0,0,1,8.52651e-13,236.22)">
            <path d="M2362.2,409.936L2007.87,-0C2007.87,0 1889.76,0 1889.76,0L1889.76,590.551L1948.82,590.551C1964.48,590.551 1979.5,584.329 1990.58,573.254C2001.65,562.179 2007.87,547.158 2007.87,531.496L2007.87,180.615L2362.2,590.551C2362.2,590.551 2480.32,590.551 2480.32,590.551L2480.32,-0L2421.26,-0C2405.6,-0 2390.58,6.222 2379.5,17.297C2368.43,28.372 2362.2,43.393 2362.2,59.055L2362.2,409.936Z" style="fill:white;"/>
        </g>
        <g transform="matrix(1,0,0,1,-118.11,118.11)">
            <path d="M3307.09,1354.82L2952.76,944.882C2952.76,944.882 2834.65,944.882 2834.65,944.882L2834.65,1535.43L2893.7,1535.43C2909.36,1535.43 2924.38,1529.21 2935.46,1518.14C2946.53,1507.06 2952.76,1492.04 2952.76,1476.38L2952.76,1125.5L3307.09,1535.43L3425.2,1535.43L3425.2,944.882L3366.14,944.882C3350.48,944.882 3335.46,951.104 3324.38,962.179C3313.31,973.254 3307.09,988.275 3307.09,1003.94L3307.09,1354.82Z" style="fill:white;"/>
        </g>
        <g transform="matrix(1,0,0,1,-118.11,3.41061e-12)">
            <path d="M2952.76,2300.69L2952.76,1948.82C2952.76,1933.16 2946.53,1918.14 2935.46,1907.06C2924.38,1895.99 2909.36,1889.76 2893.7,1889.76L2834.65,1889.76L2834.65,2480.32L2952.76,2480.32C2952.76,2480.32 3129.92,2275.35 3129.92,2275.35L3307.09,2480.32C3307.09,2480.32 3425.2,2480.32 3425.2,2480.32L3425.2,1889.76L3366.14,1889.76C3350.48,1889.76 3335.46,1895.99 3324.38,1907.06C3313.31,1918.14 3307.09,1933.16 3307.09,1948.82L3307.09,2299.7L3131.2,2096.21C3131.2,2096.21 2952.76,2300.69 2952.76,2300.69Z" style="fill:white;"/>
        </g>
        <g transform="matrix(1,0,0,1,118.11,-118.11)">
            <path d="M944.882,3425.2L1535.43,3425.2L1535.43,3366.14C1535.43,3333.53 1508.99,3307.09 1476.38,3307.09L1062.99,3307.09L1062.99,3188.98L1476.38,3188.98C1508.99,3188.98 1535.43,3162.54 1535.43,3129.92L1535.43,3129.92C1535.43,3097.31 1508.99,3070.87 1476.38,3070.87C1349.64,3070.87 1062.99,3070.87 1062.99,3070.87L1062.99,2952.76L1476.38,2952.76C1508.99,2952.76 1535.43,2926.32 1535.43,2893.7L1535.43,2834.65L944.882,2834.65L944.882,3425.2Z" style="fill:white;"/>
        </g>
        <path d="M2158.03,3070.87L2362.2,3307.09L2480.32,3307.09L2480.32,3263.12L2314.14,3070.87L2421.26,3070.87C2453.88,3070.87 2480.32,3044.43 2480.32,3011.81L2480.32,2775.59C2480.32,2742.97 2453.88,2716.53 2421.26,2716.53L1889.76,2716.53L1889.76,3307.09L1948.82,3307.09C1981.43,3307.09 2007.87,3280.65 2007.87,3248.03L2007.87,3070.87L2158.03,3070.87ZM2007.87,2834.65L2007.87,2952.76L2362.2,2952.76L2362.2,2834.65L2007.87,2834.65Z" style="fill:white;"/>
    </g>
</svg>
